<?xml version="1.0"?>
<svg xmlns="http://www.w3.org/2000/svg" xmlns:xlink="http://www.w3.org/1999/xlink" xmlns:svgjs="http://svgjs.com/svgjs" version="1.1" width="512" height="512" x="0" y="0" viewBox="0 0 512 512" style="enable-background:new 0 0 512 512" xml:space="preserve" class=""><g><g xmlns="http://www.w3.org/2000/svg"><path d="m395.993 237.164c-1.429 0-2.879-.308-4.258-.958l-86.187-40.634c-4.995-2.355-7.136-8.314-4.78-13.31 2.354-4.995 8.313-7.137 13.31-4.78l86.187 40.634c4.995 2.355 7.136 8.314 4.78 13.31-1.705 3.617-5.301 5.738-9.052 5.738z" fill="#ffffff" data-original="#000000" style=""/><path d="m116.007 237.164c-3.751 0-7.346-2.12-9.052-5.738-2.355-4.996-.215-10.955 4.78-13.31l86.187-40.634c4.995-2.356 10.954-.215 13.31 4.78 2.355 4.996.215 10.955-4.78 13.31l-86.187 40.634c-1.378.65-2.829.958-4.258.958z" fill="#ffffff" data-original="#000000" style=""/><path d="m366.004 402.002c-3.938 0-7.67-2.34-9.256-6.209-15.644-38.156-56.131-63.793-100.748-63.793s-85.104 25.637-100.748 63.793c-2.095 5.109-7.937 7.555-13.046 5.459-5.11-2.095-7.554-7.936-5.459-13.046 9.122-22.25 25.11-41.247 46.236-54.938 21.473-13.913 46.721-21.268 73.017-21.268s51.544 7.355 73.016 21.269c21.126 13.69 37.115 32.688 46.236 54.938 2.095 5.11-.349 10.951-5.459 13.046-1.241.509-2.526.749-3.789.749z" fill="#ffffff" data-original="#000000" style=""/><circle cx="440.321" cy="418.916" r="10" fill="#ffffff" data-original="#000000" style=""/><path d="m506.67 204.422c-9.677-46.571-32.233-90.29-65.212-124.946-47.971-50.41-115.91-79.476-185.457-79.476-70.451 0-139.228 29.851-187.286 81.417-43.832 47.031-68.715 110.304-68.715 174.571 0 64.981 25.461 128.943 70.176 176.126 47.962 50.609 116.151 79.886 185.844 79.886 29.11 0 57.67-4.85 84.9-14.421 26.33-9.261 50.84-22.712 72.87-39.982 2.1-1.65 3.44-4.02 3.76-6.671.32-2.65-.41-5.27-2.06-7.37-1.9-2.43-4.78-3.83-7.87-3.83-2.26 0-4.39.74-6.16 2.13-41.87 32.801-92.16 50.143-145.46 50.143-63.02 0-122.29-24.551-166.88-69.123-44.57-44.592-69.12-103.865-69.12-166.888s24.55-122.296 69.12-166.888c44.59-44.573 103.86-69.124 166.88-69.124s122.29 24.551 166.88 69.124c44.57 44.592 69.11 103.855 69.12 166.888 0 42.932-11.64 84.964-33.66 121.546-2.84 4.72-1.32 10.88 3.41 13.731 1.56.93 3.34 1.43 5.15 1.43 3.54 0 6.75-1.81 8.57-4.84 11.74-19.491 20.81-40.452 26.96-62.303 6.35-22.541 9.57-45.943 9.57-69.563 0-17.368-1.816-34.656-5.33-51.567z" fill="#ffffff" data-original="#000000" style=""/></g></g></svg>
