<?xml version="1.0"?>
<svg xmlns="http://www.w3.org/2000/svg" xmlns:xlink="http://www.w3.org/1999/xlink" xmlns:svgjs="http://svgjs.com/svgjs" version="1.1" width="512" height="512" x="0" y="0" viewBox="0 0 512 512" style="enable-background:new 0 0 512 512" xml:space="preserve"><g><g xmlns="http://www.w3.org/2000/svg"><path d="m506.67 204.422c-9.677-46.571-32.233-90.29-65.212-124.946-47.971-50.41-115.91-79.476-185.457-79.476-70.451 0-139.228 29.851-187.286 81.417-43.832 47.031-68.715 110.304-68.715 174.571 0 64.981 25.461 128.943 70.176 176.126 47.962 50.609 116.151 79.886 185.844 79.886 29.11 0 57.67-4.85 84.9-14.421 26.33-9.261 50.84-22.712 72.87-39.982 2.1-1.651 3.44-4.02 3.76-6.671.32-2.65-.41-5.27-2.06-7.37-1.9-2.43-4.78-3.83-7.87-3.83-2.26 0-4.39.74-6.16 2.13-41.87 32.801-92.16 50.143-145.46 50.143-63.02 0-122.29-24.552-166.88-69.123-44.57-44.592-69.12-103.865-69.12-166.888s24.55-122.296 69.12-166.888c44.59-44.573 103.86-69.124 166.88-69.124s122.29 24.551 166.88 69.124c44.57 44.592 69.11 103.855 69.12 166.888 0 42.932-11.64 84.964-33.66 121.546-2.84 4.72-1.32 10.88 3.41 13.731 1.56.93 3.34 1.43 5.15 1.43 3.54 0 6.75-1.81 8.57-4.84 11.74-19.491 20.81-40.452 26.96-62.303 6.35-22.541 9.57-45.943 9.57-69.563 0-17.368-1.816-34.656-5.33-51.567z" fill="#ffffff" data-original="#000000" style=""/><path d="m204 200c0-22.056-17.944-40-40-40s-40 17.944-40 40 17.944 40 40 40 40-17.944 40-40zm-60 0c0-11.028 8.972-20 20-20s20 8.972 20 20-8.972 20-20 20-20-8.972-20-20z" fill="#ffffff" data-original="#000000" style=""/><path d="m388 200c0-22.056-17.944-40-40-40s-40 17.944-40 40 17.944 40 40 40 40-17.944 40-40zm-60 0c0-11.028 8.972-20 20-20s20 8.972 20 20-8.972 20-20 20-20-8.972-20-20z" fill="#ffffff" data-original="#000000" style=""/><path d="m415.096 306h-318.192c-3.283 0-6.357 1.612-8.225 4.313s-2.29 6.146-1.131 9.218c12.78 33.869 35.241 62.83 64.955 83.75 30.402 21.405 66.19 32.719 103.497 32.719s73.095-11.314 103.497-32.719c29.714-20.921 52.175-49.881 64.955-83.75 1.159-3.072.737-6.517-1.131-9.218s-4.942-4.313-8.225-4.313zm-159.096 110c-61.252 0-117.349-35.621-143.899-90h287.798c-26.55 54.379-82.647 90-143.899 90z" fill="#ffffff" data-original="#000000" style=""/><circle cx="440.321" cy="418.916" r="10" fill="#ffffff" data-original="#000000" style=""/></g></g></svg>
